<svg xmlns="http://www.w3.org/2000/svg" viewBox="0 0 414.71 426.64"><defs><style>.cls-1{fill:#f5f5f5;}.cls-1,.cls-10,.cls-11,.cls-12,.cls-13,.cls-2,.cls-3,.cls-4,.cls-5,.cls-6,.cls-7,.cls-8,.cls-9{fill-rule:evenodd;}.cls-2{fill:#ffb969;}.cls-3{fill:#b3db4f;}.cls-4{fill:#cfed82;}.cls-5{fill:#41366e;}.cls-6{fill:#fff;}.cls-7{fill:#261d45;}.cls-8{fill:#ffb199;}.cls-9{fill:#f58282;}.cls-10{fill:#6c5f9e;}.cls-11{fill:#cc635c;}.cls-12{fill:#e68d81;}.cls-13{fill:#83c231;}</style></defs><g id="BACKGROUND"><path class="cls-1" d="M263.38,98.4C200.88,199.18,411,94.89,431.74,136.68s-45.81,37.38-41.49,58.84,60.23,9.59,58.22,64.83S117.7,393.94,70.8,346.06s20.32-77.86,52.09-112.5-27.48-35.94-49.35-64.45C20.19,99.57,336.15-18.93,263.38,98.4Zm41.8,251.77c-12.11,7.81-4.3,25.78,22.26,30.08s96.23-13.43,85.55-42.19-107.81,12.11-107.81,12.11Zm1.38-292.06c-10.31,1.4-18.66,8.8-18.66,16.52s8.35,12.84,18.66,11.44,18.66-8.81,18.66-16.53S316.86,56.7,306.56,58.11Z" transform="translate(-42.64 -24.59)"/></g><g id="OBJECTS"><path class="cls-2" d="M226.52,405.8a5.67,5.67,0,1,0-5.67-5.67A5.68,5.68,0,0,0,226.52,405.8Z" transform="translate(-42.64 -24.59)"/><path class="cls-3" d="M243,418.56a3.65,3.65,0,1,0-3.65-3.65A3.65,3.65,0,0,0,243,418.56Z" transform="translate(-42.64 -24.59)"/><path class="cls-4" d="M133.35,380.54a3.91,3.91,0,1,0-3.9-3.91A3.92,3.92,0,0,0,133.35,380.54Z" transform="translate(-42.64 -24.59)"/><path class="cls-4" d="M328.8,409.7a5.73,5.73,0,1,0-5.73-5.73A5.74,5.74,0,0,0,328.8,409.7Z" transform="translate(-42.64 -24.59)"/><path class="cls-3" d="M335.83,390a3,3,0,1,0-3-3A3,3,0,0,0,335.83,390Z" transform="translate(-42.64 -24.59)"/><path class="cls-3" d="M401.8,402.36a3.65,3.65,0,1,0-3.64-3.64A3.66,3.66,0,0,0,401.8,402.36Z" transform="translate(-42.64 -24.59)"/><path class="cls-3" d="M133.68,413.49a18.13,18.13,0,0,1,2.22.14,38.42,38.42,0,0,1,71,5.63,15,15,0,0,1,22.88,12.19H116.24c0-.17,0-.34,0-.51a17.32,17.32,0,0,1,3-9.74,52.45,52.45,0,0,0-10.44-21.62,31.36,31.36,0,0,1,13.5,18.16l.31-.26a88.93,88.93,0,0,0-11.52-38.06C123.32,386.29,127.9,403,129.6,414A17.13,17.13,0,0,1,133.68,413.49Z" transform="translate(-42.64 -24.59)"/><path class="cls-5" d="M96.46,430h14.39c1.11-8.49,9.26-15.05,17.17-15.05s13,4.16,15.76,10.14a9.25,9.25,0,0,1,8.17-3.85c4.26,0,9.56,3.78,10.43,8.76H328a12.89,12.89,0,0,1,12.29-10,10,10,0,0,1,10.24,10h51.18v2.95H96.46V430Zm325.77,2.95H407.08V430h15.15Z" transform="translate(-42.64 -24.59)"/><path class="cls-6" d="M116.39,153.88c-.57-.87-.63-4.17,1.18-7.56l-5.19-23.69h0a14,14,0,0,1-1-8.32c1.81-12,33.27-60.5,33.27-60.5,7.82-9.87,10.08-22.36,11.36-26.25s7.11-2.84,7.11-2.84,0,.57.07,1.55c0-1,.06-1.55.06-1.55s5.83-1,7.11,2.84,3.54,16.38,11.36,26.25c0,0,31.46,48.48,33.27,60.5a14,14,0,0,1-1,8.32h0l-5.19,23.69c1.81,3.39,1.75,6.69,1.18,7.56L199.77,194.3,205.84,258a37.27,37.27,0,0,1-6.44,5.52h0v0h0v.08h0v.13h0v5h0v.72h0v1.34l0,.49h0v3.3c.21,14.23-.38,39.81-6,62.91h0l-5.52,73s4.66,10.32,3,17.31H164c-1.11-10.68,6.65-3.88,6.16-17.31h0l-3.67-52.66s-8.39,1.93-7-5.59-7.28-18.23-7.28-18.23H94.54l-1.21-.61-.31-.2-.06,0-.29-.21,0,0-.29-.23h0l-.27-.25,0,0-.24-.25-.06-.05-.22-.26,0,0-.21-.25,0-.05-.2-.27,0-.06-.18-.29,0,0-.16-.28,0,0-.15-.29,0-.07c-.05-.1-.1-.2-.14-.3l0-.06-.12-.29,0,0c0-.11-.08-.21-.11-.32l0-.07c0-.11-.07-.22-.1-.32v-.06l-.09-.3v-.05c0-.11-.06-.22-.08-.33l0-.08c0-.11-.05-.22-.07-.33v-.08c0-.08,0-.17,0-.26v-.1c0-.11,0-.21-.05-.31v-.1c0-.11,0-.22,0-.33v-.1l0-.25v-.11c0-.1,0-.2,0-.3v-.13c0-.1,0-.21,0-.31v-1.66l0-.24v0l0-.2,0-.24h0v-.18l0-.14v-.15l0-.23v0l0-.19h0l0-.23,0-.23h0c0-.15,0-.29.07-.44h0a31.59,31.59,0,0,1,1.51-5.82c11.61-30.91,24.07-47.39,36.72-60.68l.19-.2,6.18-57.05-17.89-43.47Zm46.8-98.38c0,.11-.05.21-.07.31-1.13,4.93-6.79,4.58-6.79,4.58h-.06l.06,0c-4.11,7.07-7.4,16.86-10.54,26.74,5.68,1.17,24.29-2.7,33.38-3.41l.31,0c-2.81-8.68-5.8-17.06-9.44-23.31l.06,0H170s-5.65.35-6.79-4.58l-.06-.31Zm25.1,355.07h0Zm-24.57-92.86-3.07-44,0-.59-26.94,35.34-3.61,4.73,24.19,7.21c.47-.23,5.17-2.91,9.47-2.69Zm28.51-198.88-.06.27h0a5,5,0,0,1-.24.78v0l0,.11v0l-.05.11h0l0,.11v0l0,.1,0,.06,0,.06,0,.06,0,.07v0a1.59,1.59,0,0,1-.13.22l-.07.12-.13.19,0,0,0,0,0,.07,0,0-.05.07,0,.06,0,0-.06.07,0,0-.07.08v0l-.07.08h0l-.08.08v0l-.09.09h0l-.09.1h0l-.09.09h0l-.08.08h0l-.07,0,0,0-.06,0-.05,0-.05,0-.08.06,0,0-.07.05-.06,0-.06,0-.06,0-.05,0-.07,0h0l-.11.06h0l-.12.07h0l-.12.07h0l-.11.06h0l-.1,0-.06,0-.07,0-.05,0-.09,0,0,0-.1,0,0,0-.08,0,0,0-.1,0,0,0-.09,0H188l-.13,0-.14,0h0l-.13,0h-.06l-.09,0h-.06l-.09,0h-1.11v2.68a22.32,22.32,0,0,1-9.8,18.44v4.94h0l2,1,2.16,1.09,3.3,1.68.19.1,3.58-16.09,1.49-.07,3.84-18c-.22-.36-.45-.73-.66-1.11h0l0,.13,0,.14Zm-.66,1.82-.13.22a1.59,1.59,0,0,0,.13-.22ZM151.36,145h0l-.39-.27-.08,0-.38-.28h0l-.37-.28-.06-.05-.36-.3-.06,0-.33-.29,0,0-.35-.31-.07-.06-.68-.65-.07-.07c-.22-.21-.43-.44-.64-.66l-.08-.09-.3-.34,0,0-.29-.33-.05-.06-.29-.36-.06-.07-.27-.35v0l-.29-.38-.06-.08-.25-.37h0l-.25-.37-.07-.11-.24-.37,0-.07-.2-.34-.06-.09-.22-.39,0-.08-.18-.34-.06-.11-.2-.39-.05-.09-.18-.39,0,0c-.07-.14-.13-.28-.2-.43l0-.09-.18-.43h0l-.17-.42,0-.11c0-.14-.1-.28-.16-.42l0-.08c-.05-.13-.09-.25-.13-.38l0-.11-.14-.44,0-.08-.12-.4,0-.08c0-.16-.09-.31-.12-.46l0-.08c0-.15-.08-.3-.11-.45v0c0-.14-.07-.29-.1-.44l0-.13-.09-.44v-.06c0-.15-.06-.3-.08-.45v-.09c0-.16-.05-.32-.07-.48v-.08c0-.14,0-.28,0-.43v-.09c0-.15,0-.31,0-.46v-.13l0-.42v-.07c0-.16,0-.32,0-.48V127c0-.16,0-.32,0-.49v-2.68a6.18,6.18,0,0,1-6.18-6.18V117l0-.11v0h0v0l0-.1v-.18h0l0-.12v0l0-.12h0l0-.15h0l0-.13v0l0-.13h0l.09-.28h0c.05-.14.1-.28.16-.41h0L136,115h0l.06-.12,0,0,.05-.1h0l.14-.24h0l.07-.11h0l0,0,0-.08,0,0h0l.06-.09v0h0l.07-.09,0,0h0l.06-.08h0l0,0,.06-.08,0,0,.07-.09,0,0v0l.06-.06,0,0,.06-.07h0l.05-.05,0,0,.06-.06h0l.07-.07h0l0,0h0l.07-.07h0l.06,0,.06,0v0l.07-.06,0,0,0,0,.09-.07h0l.07,0,0,0h0l.09-.06.07-.05,0,0,.05,0h0c-.23-.32-.45-.63-.66-.94a56.5,56.5,0,0,1-4,8.06l3.84,18,1.49.07L142.6,155l4.75-2.75,4-2.32h0V145Zm-31.73,10.78-.19-.06.19.06Zm87.11,0,.19-.06-.19.06ZM94.54,334.09l-.86-.41.07,0,.34.17.07,0,.38.17Zm-1.19-.6h0Z" transform="translate(-42.64 -24.59)"/><path class="cls-5" d="M201.55,257.69l-.61,7.95s2.72,39.75-5.59,74h0l-5.51,73h-18.1l-9.59-137.45L131.6,315.28l24.19,7.21-2,13.69H96.08c-9.19-3.76-3.34-18.81-3.34-18.81,11.67-31.07,24.19-47.56,36.91-60.88Z" transform="translate(-42.64 -24.59)"/><path class="cls-7" d="M104.43,336.18H96.08c-5.49-2.25-5.61-8.52-4.82-13.21q.42,0,.84,0a12.36,12.36,0,0,1,12.36,12.36C104.46,335.59,104.45,335.89,104.43,336.18Z" transform="translate(-42.64 -24.59)"/><path class="cls-7" d="M193.75,360.81l-3.91,51.85h-18.1l-4-56.79C170,361.56,182.61,371.91,193.75,360.81Z" transform="translate(-42.64 -24.59)"/><polygon class="cls-7" points="92.57 285.96 88.96 290.69 93.2 291.96 79.31 288.24 92.57 285.96"/><path class="cls-7" d="M201.33,276.75c-1.84.24-3.87.49-4.58.6L188.17,406l-.74,0L196,277.47a82.1,82.1,0,0,1-33.8-1.67l0-.59-.36.47a71.34,71.34,0,0,1-32.33-18.89v-.1l.2-.2,71.9,1.2-.61,7.95S201.23,269.87,201.33,276.75Z" transform="translate(-42.64 -24.59)"/><path class="cls-8" d="M155.79,322.49c.71-.35,11-6.25,15.09.58L168.07,360s-8.4,1.93-7-5.59-7.27-18.23-7.27-18.23Z" transform="translate(-42.64 -24.59)"/><path class="cls-8" d="M189.84,412.66s4.66,10.32,3,17.31H165.57c-1.11-10.68,6.65-3.88,6.17-17.31Z" transform="translate(-42.64 -24.59)"/><path class="cls-5" d="M117.94,156c-1.36-2.06.17-17.68,22.37-16.16C137.5,154,124.6,162.33,117.94,156Z" transform="translate(-42.64 -24.59)"/><polygon class="cls-9" points="99.19 129.36 92.03 95.75 71.28 100.13 79.75 138.82 99.19 129.36"/><path class="cls-8" d="M157.87,62.53l-11.68-6.64s-31.46,48.48-33.27,60.5,8.7,17.5,17.59,10.59C142,118.05,147.11,81,157.87,62.53Z" transform="translate(-42.64 -24.59)"/><path class="cls-8" d="M152.72,63.43l5.15-1s5.66.35,6.79-4.58,0-31.1,0-31.1-5.82-1-7.1,2.84S154,46,146.19,55.89Z" transform="translate(-42.64 -24.59)"/><path class="cls-5" d="M211.52,156c1.35-2.06-.17-17.68-22.37-16.16C192,154,204.85,162.33,211.52,156Z" transform="translate(-42.64 -24.59)"/><polygon class="cls-9" points="144.97 129.36 152.14 95.75 172.89 100.13 164.42 138.82 144.97 129.36"/><path class="cls-8" d="M171.58,62.53l11.68-6.64s31.46,48.48,33.27,60.5-8.7,17.5-17.59,10.59C187.46,118.05,182.34,81,171.58,62.53Z" transform="translate(-42.64 -24.59)"/><path class="cls-8" d="M176.73,63.43l-5.15-1s-5.65.35-6.79-4.58,0-31.1,0-31.1,5.83-1,7.11,2.84S175.44,46,183.26,55.89Z" transform="translate(-42.64 -24.59)"/><path class="cls-6" d="M207.38,260.12c-14.22,15.42-45.88,21.45-77.73-3.63l6.18-57.06L117.94,156c6.66,6.36,19.56-1.94,22.37-16.16l3.83,17.26L152.9,152h25l7.67,3.9,3.58-16.09C192,154,204.85,162.33,211.52,156l-10.2,40.42Z" transform="translate(-42.64 -24.59)"/><polygon class="cls-1" points="101.5 132.49 105.21 130.34 105.54 146.38 101.5 132.49"/><path class="cls-1" d="M179.92,153l5.46,2.78L180.51,174,179.92,153Zm6.74-2Z" transform="translate(-42.64 -24.59)"/><path class="cls-1" d="M140.62,222.13s4.58,30.77,35.67,34.38C176.29,256.51,133.32,266.93,140.62,222.13Z" transform="translate(-42.64 -24.59)"/><path class="cls-1" d="M194.65,239.84s-13.15,9.12-29.82,5.47C164.83,245.31,186.45,258.59,194.65,239.84Z" transform="translate(-42.64 -24.59)"/><path class="cls-3" d="M177.9,152l4.18,2.12a16.61,16.61,0,0,1-33.19.2l4-2.32Z" transform="translate(-42.64 -24.59)"/><path class="cls-4" d="M164.32,170a16.62,16.62,0,0,1-15.43-15.67l4-2.32h12.64l-1.33,13.91C166.34,165.93,166.38,170,164.32,170Z" transform="translate(-42.64 -24.59)"/><path class="cls-9" d="M152.9,134.53h25v18.94A12.54,12.54,0,0,1,165.4,166h0a12.54,12.54,0,0,1-12.5-12.5Z" transform="translate(-42.64 -24.59)"/><path class="cls-5" d="M152.9,134.53h25v14.76c-5.2,10.29-21,7.37-25-3.32Z" transform="translate(-42.64 -24.59)"/><path class="cls-5" d="M190.66,118.25l4.16-22.36s-2.28-4-5.37-2c0,0,.8-8.73-8.73-8s-29.56,5-34.13,3.2c-2.73-10.71-26.07,1.59-5,28.18Z" transform="translate(-42.64 -24.59)"/><path class="cls-10" d="M140.24,84.88s-6.24,8.5,1.32,18C134.6,99.68,129.71,87,140.24,84.88Z" transform="translate(-42.64 -24.59)"/><path class="cls-8" d="M183.91,106.22l1.78,10.35a4.32,4.32,0,0,1,2-3,6.18,6.18,0,1,1,0,12.36v2.68a22.36,22.36,0,0,1-22.3,22.3h0a22.37,22.37,0,0,1-22.3-22.3v-2.68a6.18,6.18,0,0,1,0-12.36,4.35,4.35,0,0,1,2,3l1.81-10.18S177.46,113.31,183.91,106.22Z" transform="translate(-42.64 -24.59)"/><path class="cls-9" d="M164.4,150.9a22.37,22.37,0,0,1-21.3-22.28v-2.68a6.18,6.18,0,0,1,0-12.36,4.35,4.35,0,0,1,2,3l1.81-10.18a144.79,144.79,0,0,0,18.43,2.78,63.47,63.47,0,0,1-.63,12.47c-5.24-4.12-7.92,4.7-.33,7.93Z" transform="translate(-42.64 -24.59)"/><path class="cls-9" d="M183.91,106.22l1.78,10.35.18-.63a4.73,4.73,0,0,0-.18.63l-2.49-8.63c-7.86,10.14-35.13-.67-35.13-.67l-2.95,9.3,1.81-10.18S177.46,113.31,183.91,106.22Z" transform="translate(-42.64 -24.59)"/><path class="cls-9" d="M193.2,116.93a6.25,6.25,0,0,1,.68,2.83,6.18,6.18,0,0,1-6.18,6.18v-2.18c3.48-1,2.06-5.41-.54-5.41C187.16,118.35,190.63,116.06,193.2,116.93Z" transform="translate(-42.64 -24.59)"/><path class="cls-9" d="M166.48,126.58a1.59,1.59,0,0,1,1.65,1.3,1.2,1.2,0,0,1-.88,1.15c.1-.13.16-.1.16-.42s-.64-.89-1.27-.89a1.24,1.24,0,0,0-1.21.62c-.06-.14-.1,0-.1-.46A1.76,1.76,0,0,1,166.48,126.58Z" transform="translate(-42.64 -24.59)"/><path class="cls-5" d="M170.27,113.92h10.34s-1.76-3.37-9.46-2.78A3.18,3.18,0,0,0,170.27,113.92Z" transform="translate(-42.64 -24.59)"/><path class="cls-5" d="M159.13,113.92H148.79s1.76-3.37,9.46-2.78A3.18,3.18,0,0,1,159.13,113.92Z" transform="translate(-42.64 -24.59)"/><path class="cls-5" d="M157.71,117.58a7.32,7.32,0,0,1-7.18.15C150.65,118.84,154.6,122.12,157.71,117.58Z" transform="translate(-42.64 -24.59)"/><path class="cls-5" d="M172.22,117.58a7.35,7.35,0,0,0,7.19.15C179.29,118.84,175.34,122.12,172.22,117.58Z" transform="translate(-42.64 -24.59)"/><path class="cls-6" d="M170.76,135.42a5.49,5.49,0,1,1-11,0Z" transform="translate(-42.64 -24.59)"/><path class="cls-6" d="M351.86,82.28c11.71-.44,19.48,10,14.85,19.7,5.72-8.31,1.17-18.94-9.12-21.26,13.92,1,19.18,16.47,8.55,25,3.78,6.34,4.16,14.62,1.33,22.81,1.95,2.52,1.64,9.17-3,10.15,0,7.26-4.3,13.89-9.42,18.33v6.7l6.11,3,.16-.6,4,1.85-.18.74,15.43,7.68,24,31.88-2,1.41,5,6c4.13,1,7.68,4.12,8.55,7.54a3.67,3.67,0,0,1,.91,2.37,4.26,4.26,0,0,1-2.89,3.78,14.74,14.74,0,0,1-6.14,3c-8.18,2.22-22.43.68-34-1.26a80.43,80.43,0,0,0,.32,29.5c4.94,1.14,4.92,4.36,1.48,7.71l-9.24,145.69s4.48,12.07,2.87,18.78H343.23c-1.07-10.26,6.39-5.88,5.92-18.78L345.24,358c-2.26-.07-5.24-1-4.74-5.57.73-6.65-6.24-17.8-7.36-19.54l0,.28-50.21,6.32c-8.84-3.62-10.55-15.41-8-19.59l33.82-55.79c-4.86-3.72-1.8-6.37,2.43-7a79.49,79.49,0,0,0,2.94-25.87c-10.9,1.35-23,2-30.09-.06a13.61,13.61,0,0,1-6.28-3.46c-1.67-1.48-1.9-2.12-1.68-4,0-3.64,3.33-7.33,7.54-8.79l4.3-6.42-1.54-1.15L310,176l15.47-9-.05-.7,3.66-1.86,0,.45,1.94-1.13v-6.68c-5.28-4.64-9.41-11.14-9.41-18.35-5.69-1.29-5.07-9.8-2.17-11.25-4.29-15.45.46-29.28,16.37-32.27,1.17-7,7.89-12.6,16-12.91ZM312.72,216.07l-.21-1.68-.82,1.55,1,.13Zm66.65.85-1.48-3.66c-.29,1.32-.6,2.62-.9,3.92l2.38-.26Zm-37,100.2-2.44-35-29.91,37,23.8.43a36.77,36.77,0,0,1,8.55-2.4ZM345.45,361" transform="translate(-42.64 -24.59)"/><polygon class="cls-11" points="252.23 179.18 239.59 198.05 258 208.68 269.49 193.28 252.23 179.18"/><polygon class="cls-11" points="358.42 182.59 371.59 198.52 353.15 209.16 341.74 193.61 358.42 182.59"/><path class="cls-6" d="M383,178.6l24,31.89L384.6,226.11l-4.32-10.7c-3.3,14.6-7.41,27.39-3.6,47.49,12.44,2.84-6.53,18.94-32.4,16.87a60.46,60.46,0,0,1-33.18-13.5c-4.86-3.71-1.8-6.37,2.43-7,4.43-15.12,3.17-28.81,1.36-42.73l-4.7,8.94-21.47-16,23.66-31.39,21.06-12.2h24Z" transform="translate(-42.64 -24.59)"/><path class="cls-1" d="M377.9,225.69a92.55,92.55,0,0,0-2.71,23.94c-20.36-16.14-44.14-13.63-58.68-9.7a116.21,116.21,0,0,0-.56-14.24Z" transform="translate(-42.64 -24.59)"/><path class="cls-5" d="M378.22,269.73l-9.3,146.57H351.54l-9.21-132-29.91,37,23.8.43-.71,13.66-50.22,6.32c-8.83-3.62-10.54-15.4-8-19.59l33.82-55.79Z" transform="translate(-42.64 -24.59)"/><path class="cls-7" d="M372.13,365.7l-3.21,50.6H351.54l-3.71-53.17s9.22,13.49,24.3,2.57Zm-24.3-2.58h0Z" transform="translate(-42.64 -24.59)"/><path class="cls-7" d="M378.22,269.73l-.81,12.77q-1.4.44-2.76.81l-7.57,127.42-.74-.05,7.56-127.17c-12.29,3.24-22.81,3.05-31.54,1.17l0-.43-.29.36c-20.48-4.54-30.94-18.34-30.94-18.34l67.12,3.46Zm-62.51,47.44-11,2.16,10.18,2.77-2.42-.86Z" transform="translate(-42.64 -24.59)"/><path class="cls-12" d="M336.22,321.67S347.17,317,351,320.42L350,360s-7.93,1.85-7.13-5.37-7.52-19.77-7.52-19.77Z" transform="translate(-42.64 -24.59)"/><path class="cls-12" d="M368.92,416.3s4.48,9.91,2.87,16.62H345.61c-1.06-10.26,6.4-3.72,5.93-16.62Z" transform="translate(-42.64 -24.59)"/><path class="cls-12" d="M383,178.6l4.23,5.61c-54.85,11.46-74.82-6.11-74.82-6.11l21.06-12.2h24Z" transform="translate(-42.64 -24.59)"/><path class="cls-11" d="M387.2,184.21a185.6,185.6,0,0,1-22.62,3.37h-.06l-1.15.09h-.83l-1.36.09h-.41a108,108,0,0,1-29.49-1.92h0l-.66-.15h-.05l-.33-.08-.92-.22-.09,0h-.05l-.95-.25h-.05c-11.06-2.95-15.75-7.07-15.75-7.07l2.58-1.49a50.9,50.9,0,0,0,13.25,6.65,36.16,36.16,0,0,0-1.78-13.3l3.28-1.9,1.42,16.13c7.42,2.19,17.2,3.74,29.72,3.32L365,169.63l4.39,2.19a37.63,37.63,0,0,0-4.75,15.51A158.06,158.06,0,0,0,387.2,184.21Z" transform="translate(-42.64 -24.59)"/><path class="cls-5" d="M358.7,188l5-19.63,4,1.85-4.19,17.49C361.88,187.79,360.26,187.89,358.7,188Z" transform="translate(-42.64 -24.59)"/><path class="cls-5" d="M331.46,166.57l1.79,19.77q-2.14-.42-4.05-.9l-1.4-17Z" transform="translate(-42.64 -24.59)"/><path class="cls-5" d="M354.25,84.43c8.94-.33,16.19,5.88,16.19,13.87a13.55,13.55,0,0,1-1.34,5.84,13.76,13.76,0,0,0,2.49-7.82c0-6.57-4.9-11.94-11.62-13.45,8,.58,14.2,6.44,14.2,13.83,0,6.58-4.9,12.32-11.62,14.33a18,18,0,0,1-8.3,2.36c-8.95.34-16.2-5.87-16.2-13.87S345.3,84.77,354.25,84.43Z" transform="translate(-42.64 -24.59)"/><path class="cls-5" d="M345.46,96.75c24.67.24,31.37,20.46,22.54,38.4H323.76C315.72,115.42,321.55,96.53,345.46,96.75Z" transform="translate(-42.64 -24.59)"/><path class="cls-10" d="M352.24,85.61c2.94-.43,5.51.48,5.73,2s-2,3.14-4.92,3.56-5.5-.47-5.73-2S349.3,86,352.24,85.61Z" transform="translate(-42.64 -24.59)"/><path class="cls-10" d="M330.69,101.76c2.72-1.3,5.06-1.31,5.23,0s-1.91,3.43-4.63,4.73-5.05,1.31-5.22,0S328,103.07,330.69,101.76Z" transform="translate(-42.64 -24.59)"/><path class="cls-10" d="M340.1,100.58c1.11-.22,2,.21,2,1s-.9,1.54-2,1.76-2-.21-2-1S339,100.8,340.1,100.58Z" transform="translate(-42.64 -24.59)"/><path class="cls-12" d="M333.44,149.12h24v18.19a12,12,0,0,1-12,12h0a12.05,12.05,0,0,1-12-12Z" transform="translate(-42.64 -24.59)"/><path class="cls-5" d="M333.44,149.12h24v14.17c-5,9.89-20.2,7.08-24-3.18Z" transform="translate(-42.64 -24.59)"/><path class="cls-12" d="M363.23,121.92l1.71,9.94c5.93-7.6,9.08,7.49,1.93,9,0,13-13.8,24-21.42,24S324,153.94,324,140.86c-7.92-3-3.3-16.45,1.93-9l1.31-7.32a5.43,5.43,0,0,0,3.73-1.78C338.84,124.26,358.32,127.32,363.23,121.92Z" transform="translate(-42.64 -24.59)"/><path class="cls-11" d="M344.49,164.81C336.72,164,324,153.41,324,140.86c-7.87-1.78-3.66-17.39,1.93-9l1.31-7.32a5.43,5.43,0,0,0,3.73-1.78,136.61,136.61,0,0,0,14.41,2h0a60.83,60.83,0,0,1-.6,12c-4.57-1.86-5.11,5.31-.32,7.62v9.17c2.91,0,6.28-.43,6.74-2.45l1.15.26c-.61,2.7-4.59,3.31-7.89,3.35Z" transform="translate(-42.64 -24.59)"/><path class="cls-11" d="M363.23,121.92l1.71,9.94.18-.61a4.87,4.87,0,0,0-.18.61l-2.39-8.29c-6.47,8.35-26.65,1.91-32.27-.1a3.72,3.72,0,0,0,.72-.71C338.84,124.26,358.32,127.32,363.23,121.92Z" transform="translate(-42.64 -24.59)"/><path class="cls-11" d="M346.45,141.35a1.27,1.27,0,0,1,1.31,1,1,1,0,0,1-.69.91c.07-.1.12-.08.12-.34s-.51-.7-1-.7a1,1,0,0,0-.95.49c-.05-.11-.08,0-.08-.36A1.38,1.38,0,0,1,346.45,141.35Z" transform="translate(-42.64 -24.59)"/><path class="cls-5" d="M338.07,132.83a7.06,7.06,0,0,1-6.91.15C331.28,134,335.08,137.2,338.07,132.83Z" transform="translate(-42.64 -24.59)"/><path class="cls-5" d="M332.05,133.7l-.89-.72a3.25,3.25,0,0,1-1.8,1.14S331.17,134.67,332.05,133.7Z" transform="translate(-42.64 -24.59)"/><path class="cls-5" d="M352.15,132.83a7.06,7.06,0,0,0,6.91.15C358.94,134,355.14,137.2,352.15,132.83Z" transform="translate(-42.64 -24.59)"/><path class="cls-5" d="M358.17,133.7l.89-.72a3.25,3.25,0,0,0,1.8,1.14S359.06,134.67,358.17,133.7Z" transform="translate(-42.64 -24.59)"/><path class="cls-5" d="M334,124c1.81-.21,3.29.48,3.29,1.54s-1.48,2.07-3.29,2.27-3.29-.48-3.29-1.54S332.13,124.15,334,124Z" transform="translate(-42.64 -24.59)"/><path class="cls-5" d="M355,124c-1.82-.21-3.29.48-3.29,1.54s1.47,2.07,3.29,2.27,3.29-.48,3.29-1.54S356.82,124.15,355,124Z" transform="translate(-42.64 -24.59)"/><path class="cls-12" d="M407.16,217.65a207.73,207.73,0,0,0-25.46,1.43c-14.55,1.66-23.49,1.8-23.5,1.8-4.75-4.31-1.91-21.27-9-20.35l-.49,27.36s-.2,2.51,9.1,1.74h0s37.1,9.21,52.57,5S416.77,217.38,407.16,217.65Z" transform="translate(-42.64 -24.59)"/><path class="cls-12" d="M290.26,216.41a217.29,217.29,0,0,1,26.22,2c14.39,2,23.27,2.3,23.27,2.3,4.89-4.2,2.73-21.21,9.72-20.14l-.6,27.35s.11,2.51-9.1,1.54c0,0-38.2,8.39-53.39,3.87S280.74,215.93,290.26,216.41Z" transform="translate(-42.64 -24.59)"/><path class="cls-11" d="M414.8,223.65c2.61.28,4.62,2,4.62,4.21,0,2.34-2.39,4.24-5.34,4.24a5.33,5.33,0,0,1-5.14-3.06,4.63,4.63,0,0,0,3.69,1.7c2.44,0,4.42-1.7,4.42-3.79A3.74,3.74,0,0,0,414.8,223.65Z" transform="translate(-42.64 -24.59)"/><path class="cls-11" d="M283,222.49c-2.62.28-4.63,2.06-4.63,4.21,0,2.34,2.39,4.25,5.35,4.25a5.32,5.32,0,0,0,5.13-3.06,4.65,4.65,0,0,1-3.68,1.69c-2.44,0-4.42-1.69-4.42-3.79A3.73,3.73,0,0,1,283,222.49Z" transform="translate(-42.64 -24.59)"/><path class="cls-3" d="M435.83,97a11.46,11.46,0,0,1,11.45,11.46H424.37A11.46,11.46,0,0,1,435.83,97Z" transform="translate(-42.64 -24.59)"/><path class="cls-3" d="M272.28,178.74a11.47,11.47,0,0,1,11.46,11.46H260.82A11.47,11.47,0,0,1,272.28,178.74Z" transform="translate(-42.64 -24.59)"/><path class="cls-2" d="M54.1,113.29a11.46,11.46,0,0,1-11.46-11.46H65.56A11.46,11.46,0,0,1,54.1,113.29Z" transform="translate(-42.64 -24.59)"/><path class="cls-3" d="M75.51,394.69c4.7,4.48,15.69,19.55,10.74,53.94C103.56,436.27,89,397.67,75.51,394.69Z" transform="translate(-42.64 -24.59)"/><path class="cls-3" d="M89.56,408.76c-3.48,3.31-9.64,10.88-7.94,39.87C68.36,434.61,78.24,412.56,89.56,408.76Z" transform="translate(-42.64 -24.59)"/><path class="cls-3" d="M78.77,439.71a8.92,8.92,0,0,1,8.92,8.92H69.85A8.92,8.92,0,0,1,78.77,439.71Z" transform="translate(-42.64 -24.59)"/><path class="cls-5" d="M98.28,442a6.67,6.67,0,0,1,6.67,6.67H91.61A6.67,6.67,0,0,1,98.28,442Z" transform="translate(-42.64 -24.59)"/><path class="cls-13" d="M407.56,299.39l11.69-11s7.19-1.26,10.79,6.83c0,0-8.45,1.44-11.51,14S407.56,299.39,407.56,299.39Z" transform="translate(-42.64 -24.59)"/><path class="cls-3" d="M396,351c34.1-5.12,29.1-41.52,23.21-62.6C409.53,290.4,364,312.16,396,351Z" transform="translate(-42.64 -24.59)"/><path class="cls-13" d="M340.74,383.57s-9.3-19.61,3.2-31.07,31.3-10.4,40,2.28C363.91,361.14,352.36,367.22,340.74,383.57Z" transform="translate(-42.64 -24.59)"/><path class="cls-3" d="M390,360.45s-25.66-3.69-49.24,23.12c10.43-15.59,3.84-32.49,19.27-40.11C372.33,337.37,387.29,342.32,390,360.45Z" transform="translate(-42.64 -24.59)"/><path class="cls-13" d="M402.2,423.52c0-.23,15.24-80.45-32.52-60.87,7.31-6.25,19.74-7.26,27.07-.26-8.17-30.41,10.81-57.69,13.3-58.4-2.21,2.25-20.31,34.42-9.78,62.81,11.28,18.29,4,56.92,3.93,57.08Z" transform="translate(-42.64 -24.59)"/><polygon class="cls-2" points="325.84 371.34 384.51 371.34 372.88 425.16 337.48 425.16 325.84 371.34"/><polygon class="cls-7" points="325.84 371.34 384.51 371.34 380.42 390.27 329 385.95 325.84 371.34"/><polygon class="cls-2" points="324.15 371.34 355.18 371.34 386.21 371.34 385.05 382.5 355.18 382.5 325.31 382.5 324.15 371.34"/><path class="cls-3" d="M404.54,359.72s2.14-13.47,19-8.18,25.05,30.36,21.35,44.5A103.67,103.67,0,0,0,413.15,386C395,383.34,390.8,361.24,404.54,359.72Z" transform="translate(-42.64 -24.59)"/><path class="cls-13" d="M433.75,382.47c-.49-1.84-16.27-24.76-31.49-22.26C415.31,355.17,431.62,371.87,433.75,382.47Z" transform="translate(-42.64 -24.59)"/><path class="cls-5" d="M373.6,448.27h23.13a5.76,5.76,0,0,1,5.54-4.22,5.68,5.68,0,0,1,2.7.67A10.29,10.29,0,0,1,425.29,447a10.69,10.69,0,0,1-.07,1.27h3.33v3H373.6Z" transform="translate(-42.64 -24.59)"/><path class="cls-6" d="M375.82,247.85s15.62-15,36.53-7.28c15.08,5.57,33.48,8.85,45,4.71l-.09,2.76c-6.42,3.62-16.72,5.43-32.9-.19C389,235.54,375.82,247.85,375.82,247.85Z" transform="translate(-42.64 -24.59)"/><path class="cls-6" d="M365.08,103.62s-13.83-15-32.35-7.28-42.67,11.06-48.44-3.71c0,0,6.44,23.3,37.79,11s43,0,43,0ZM283.7,89.24c-8.2-14.65,6.51-14.26,10.55-11.33C280.06,76.16,283.7,89.24,283.7,89.24Z" transform="translate(-42.64 -24.59)"/><path class="cls-6" d="M145.07,306.86s-13.83-15-32.35-7.29-42.67,11.06-48.44-3.71c0,0,6.45,23.31,37.79,11s43,0,43,0ZM63.69,292.48c-8.2-14.65,6.52-14.26,10.55-11.33C60.05,279.39,63.69,292.48,63.69,292.48Z" transform="translate(-42.64 -24.59)"/></g></svg>